<?xml version="1.0" encoding="UTF-8" standalone="no"?>
<!-- Created with Inkscape (http://www.inkscape.org/) -->

<svg
   xmlns:dc="http://purl.org/dc/elements/1.1/"
   xmlns:cc="http://creativecommons.org/ns#"
   xmlns:rdf="http://www.w3.org/1999/02/22-rdf-syntax-ns#"
   xmlns:svg="http://www.w3.org/2000/svg"
   xmlns="http://www.w3.org/2000/svg"
   xmlns:xlink="http://www.w3.org/1999/xlink"
   xmlns:sodipodi="http://sodipodi.sourceforge.net/DTD/sodipodi-0.dtd"
   xmlns:inkscape="http://www.inkscape.org/namespaces/inkscape"
   width="256"
   height="256"
   id="svg2"
   version="1.1"
   inkscape:version="0.48.3.1 r9886"
   sodipodi:docname="icon.svg"
   inkscape:export-filename="/home/paul/src/prj/derp/icon-32.png"
   inkscape:export-xdpi="11.25"
   inkscape:export-ydpi="11.25">
  <defs
     id="defs4">
    <linearGradient
       id="linearGradient4013">
      <stop
         id="stop4015"
         offset="0"
         style="stop-color:#3b3b3b;stop-opacity:1;" />
      <stop
         id="stop4017"
         offset="1"
         style="stop-color:#000000;stop-opacity:1;" />
    </linearGradient>
    <linearGradient
       id="linearGradient4247">
      <stop
         id="stop4249"
         offset="0"
         style="stop-color:#bae9f5;stop-opacity:1;" />
      <stop
         id="stop4251"
         offset="1"
         style="stop-color:#007fab;stop-opacity:1;" />
    </linearGradient>
    <linearGradient
       id="linearGradient3997">
      <stop
         style="stop-color:#737373;stop-opacity:1;"
         offset="0"
         id="stop3999" />
      <stop
         style="stop-color:#181818;stop-opacity:1;"
         offset="1"
         id="stop4001" />
    </linearGradient>
    <linearGradient
       id="linearGradient3963">
      <stop
         style="stop-color:#e8b517;stop-opacity:1;"
         offset="0"
         id="stop3965" />
      <stop
         style="stop-color:#fcfc64;stop-opacity:1;"
         offset="1"
         id="stop3967" />
    </linearGradient>
    <linearGradient
       inkscape:collect="always"
       xlink:href="#linearGradient3963"
       id="linearGradient3980"
       gradientUnits="userSpaceOnUse"
       x1="69.700523"
       y1="88.062149"
       x2="113.13708"
       y2="207.26015"
       gradientTransform="matrix(1,0,0,1.0490566,8.5862987,803.72085)" />
    <radialGradient
       inkscape:collect="always"
       xlink:href="#linearGradient3997"
       id="radialGradient4005"
       cx="235.11301"
       cy="710.69611"
       fx="235.11301"
       fy="710.69611"
       r="247.23483"
       gradientTransform="matrix(-0.96525943,-0.00966172,0.0078878,-3.3830441,796.50888,3048.8279)"
       gradientUnits="userSpaceOnUse" />
    <linearGradient
       inkscape:collect="always"
       xlink:href="#linearGradient3963"
       id="linearGradient4029"
       gradientUnits="userSpaceOnUse"
       gradientTransform="matrix(1,0,0,1.0490566,8.5862987,803.72085)"
       x1="69.700523"
       y1="88.062149"
       x2="113.13708"
       y2="207.26015" />
    <radialGradient
       inkscape:collect="always"
       xlink:href="#linearGradient4247"
       id="radialGradient4071"
       gradientUnits="userSpaceOnUse"
       gradientTransform="matrix(-0.54251146,-0.00107945,-0.00447866,-1.2313474,256.64253,1662.5868)"
       cx="235.11301"
       cy="710.69611"
       fx="235.11301"
       fy="710.69611"
       r="247.23483" />
    <linearGradient
       inkscape:collect="always"
       xlink:href="#linearGradient3963"
       id="linearGradient4087"
       gradientUnits="userSpaceOnUse"
       gradientTransform="matrix(0.99008975,-0.14043607,0.14732539,1.0386602,31.121439,768.04898)"
       x1="69.700523"
       y1="88.062149"
       x2="113.13708"
       y2="207.26015" />
    <linearGradient
       inkscape:collect="always"
       xlink:href="#linearGradient3963"
       id="linearGradient4103"
       gradientUnits="userSpaceOnUse"
       gradientTransform="matrix(0.92610208,0.37727302,-0.39578075,0.9715335,111.96849,790.50105)"
       x1="69.700523"
       y1="88.062149"
       x2="113.13708"
       y2="207.26015" />
    <radialGradient
       inkscape:collect="always"
       xlink:href="#linearGradient3997"
       id="radialGradient4177"
       gradientUnits="userSpaceOnUse"
       gradientTransform="matrix(-0.54251146,-0.00107945,-0.00447866,-1.2313474,-48.459511,1666.6684)"
       cx="235.11301"
       cy="710.69611"
       fx="235.11301"
       fy="710.69611"
       r="247.23483" />
    <linearGradient
       inkscape:collect="always"
       xlink:href="#linearGradient3963"
       id="linearGradient4179"
       gradientUnits="userSpaceOnUse"
       gradientTransform="matrix(1,0,0,1.0490566,8.5862987,803.72085)"
       x1="69.700523"
       y1="88.062149"
       x2="113.13708"
       y2="207.26015" />
    <linearGradient
       inkscape:collect="always"
       xlink:href="#linearGradient3963"
       id="linearGradient4181"
       gradientUnits="userSpaceOnUse"
       gradientTransform="matrix(1,0,0,1.0490566,8.5862987,803.72085)"
       x1="69.700523"
       y1="88.062149"
       x2="113.13708"
       y2="207.26015" />
    <linearGradient
       inkscape:collect="always"
       xlink:href="#linearGradient3963"
       id="linearGradient4197"
       gradientUnits="userSpaceOnUse"
       gradientTransform="matrix(1,0,0,1.0490566,8.5862987,803.72085)"
       x1="69.700523"
       y1="88.062149"
       x2="113.13708"
       y2="207.26015" />
    <radialGradient
       inkscape:collect="always"
       xlink:href="#linearGradient4247"
       id="radialGradient4255"
       gradientUnits="userSpaceOnUse"
       gradientTransform="matrix(-0.54251146,-0.00107945,-0.00447866,-1.2313474,256.64253,1662.5868)"
       cx="235.11301"
       cy="710.69611"
       fx="235.11301"
       fy="710.69611"
       r="247.23483" />
    <radialGradient
       inkscape:collect="always"
       xlink:href="#linearGradient4247"
       id="radialGradient4259"
       gradientUnits="userSpaceOnUse"
       gradientTransform="matrix(-0.54251146,-0.00107945,-0.00447866,-1.2313474,256.64253,1662.5868)"
       cx="235.11301"
       cy="710.69611"
       fx="235.11301"
       fy="710.69611"
       r="247.23483" />
    <radialGradient
       inkscape:collect="always"
       xlink:href="#linearGradient3997"
       id="radialGradient4271"
       cx="140.76111"
       cy="9.8030386"
       fx="140.76111"
       fy="9.8030386"
       r="144.36763"
       gradientTransform="matrix(-1.1942269,-0.00691144,0.00997237,-1.7693569,294.04377,826.14754)"
       gradientUnits="userSpaceOnUse" />
    <radialGradient
       inkscape:collect="always"
       xlink:href="#linearGradient4013"
       id="radialGradient3231"
       gradientUnits="userSpaceOnUse"
       gradientTransform="matrix(-1.4927836,-0.012287,0.01246546,-3.1455232,339.96206,1071.813)"
       cx="140.76111"
       cy="9.8030386"
       fx="140.76111"
       fy="9.8030386"
       r="144.36763" />
    <linearGradient
       inkscape:collect="always"
       xlink:href="#linearGradient3963"
       id="linearGradient3233"
       gradientUnits="userSpaceOnUse"
       gradientTransform="matrix(1,0,0,1.0490566,8.5862987,803.72085)"
       x1="69.700523"
       y1="88.062149"
       x2="113.13708"
       y2="207.26015" />
    <linearGradient
       inkscape:collect="always"
       xlink:href="#linearGradient3963"
       id="linearGradient3235"
       gradientUnits="userSpaceOnUse"
       gradientTransform="matrix(1,0,0,1.0490566,8.5862987,803.72085)"
       x1="69.700523"
       y1="88.062149"
       x2="113.13708"
       y2="207.26015" />
    <linearGradient
       inkscape:collect="always"
       xlink:href="#linearGradient3963"
       id="linearGradient4048"
       gradientUnits="userSpaceOnUse"
       gradientTransform="matrix(0.99008975,-0.14043607,0.14732539,1.0386602,31.121439,768.04898)"
       x1="69.700523"
       y1="88.062149"
       x2="113.13708"
       y2="207.26015" />
    <linearGradient
       inkscape:collect="always"
       xlink:href="#linearGradient3963"
       id="linearGradient4050"
       gradientUnits="userSpaceOnUse"
       gradientTransform="matrix(0.92610208,0.37727302,-0.39578075,0.9715335,111.96849,790.50105)"
       x1="69.700523"
       y1="88.062149"
       x2="113.13708"
       y2="207.26015" />
  </defs>
  <sodipodi:namedview
     id="base"
     pagecolor="#ffffff"
     bordercolor="#666666"
     borderopacity="1.0"
     inkscape:pageopacity="0.0"
     inkscape:pageshadow="2"
     inkscape:zoom="0.67882251"
     inkscape:cx="190.48588"
     inkscape:cy="-62.309202"
     inkscape:document-units="px"
     inkscape:current-layer="layer1"
     showgrid="false"
     inkscape:window-width="1366"
     inkscape:window-height="702"
     inkscape:window-x="-2"
     inkscape:window-y="16"
     inkscape:window-maximized="1"
     inkscape:snap-page="false" />
  <metadata
     id="metadata7">
    <rdf:RDF>
      <cc:Work
         rdf:about="">
        <dc:format>image/svg+xml</dc:format>
        <dc:type
           rdf:resource="http://purl.org/dc/dcmitype/StillImage" />
        <dc:title></dc:title>
      </cc:Work>
    </rdf:RDF>
  </metadata>
  <g
     inkscape:label="Layer 1"
     inkscape:groupmode="layer"
     id="layer1"
     transform="translate(0,-796.36218)">
    <rect
       style="fill:url(#radialGradient4271);fill-opacity:1;fill-rule:nonzero;stroke:none"
       id="rect4261"
       width="256"
       height="180"
       x="4.4431951e-07"
       y="833.63843"
       ry="25"
       rx="25" />
    <rect
       style="fill:url(#radialGradient4005);fill-opacity:1;fill-rule:nonzero;stroke:none"
       id="rect3188"
       width="477.29712"
       height="452.54837"
       x="340.42142"
       y="658.40259"
       rx="0"
       ry="128" />
    <g
       id="g4007"
       transform="translate(565.68543,-40.406102)">
      <path
         sodipodi:nodetypes="sssss"
         inkscape:connector-curvature="0"
         id="path3958"
         d="m 174.75639,132.76138 c 5.01174,62.63923 -28.12997,103.81997 -64.67189,103.81997 -36.54192,0 -68.737071,-49.34139 -68.737071,-104.01479 0,-54.673396 24.940927,-94.373823 61.482841,-94.373823 36.54192,0 67.55899,39.986073 71.92612,94.568643 z"
         style="fill:#ffffff;fill-opacity:1;fill-rule:nonzero;stroke:none"
         transform="matrix(0.99161779,0.29561813,-0.3068547,0.9553062,52.637543,777.26527)" />
      <path
         sodipodi:nodetypes="sssss"
         inkscape:connector-curvature="0"
         id="path3961"
         d="m 141.92643,957.40786 c 0,38.7735 -24.34696,75.76144 -51.26524,75.76144 -26.918282,0 -46.161449,-32.95 -45.709403,-71.72083 0.505076,-43.31917 21.316502,-68.69039 48.234784,-68.69039 26.918279,0 48.739859,25.8763 48.739859,64.64978 z"
         style="fill:url(#linearGradient3980);fill-opacity:1;fill-rule:nonzero;stroke:none" />
      <path
         sodipodi:nodetypes="sssss"
         inkscape:connector-curvature="0"
         id="path3982"
         d="m 130.35789,164.5812 c 0,29.98117 -20.65226,59.33647 -45.505074,59.33647 -24.852814,0 -37.423855,-21.27408 -37.423855,-51.25525 0,-29.98117 22.167491,-60.8517 47.020305,-60.8517 24.852814,0 35.908624,22.78931 35.908624,52.77048 z"
         style="fill:#000000;fill-opacity:1;fill-rule:nonzero;stroke:none"
         transform="translate(0,796.36218)" />
      <path
         sodipodi:nodetypes="sssss"
         inkscape:connector-curvature="0"
         id="path3985"
         d="m 97.39922,134.78169 c 0.173914,19.02791 -9.913695,32.14286 -22.142857,32.14286 -12.229162,0 -23.308356,-13.95707 -23.308356,-31.70908 0,-17.75201 9.778418,-30.95124 22.00758,-30.95124 12.229162,0 23.281387,12.76619 23.443633,30.51746 z"
         style="fill:#ffffff;fill-opacity:1;fill-rule:nonzero;stroke:none"
         transform="matrix(0.74950972,0.66199334,-0.66199334,0.74950972,111.6111,781.31462)" />
      <path
         sodipodi:nodetypes="ssssss"
         inkscape:connector-curvature="0"
         id="path3992"
         d="m 82.816449,990.66976 c 1.711088,3.1322 0.08104,7.73408 -4.185989,9.96704 -1.758957,0.9204 -5.290158,1.104 -6.985747,1.057 -2.417832,-0.067 -3.27484,-1.0967 -4.280627,-2.93783 -1.711088,-3.1322 0.153053,-8.34586 4.420126,-10.57883 4.26703,-2.23292 9.321149,-0.63957 11.032237,2.49262 z"
         style="fill:#ffffff;fill-opacity:1;fill-rule:nonzero;stroke:none" />
      <path
         sodipodi:nodetypes="csscsccccscsccscscsscc"
         transform="translate(0,796.36218)"
         inkscape:connector-curvature="0"
         id="path3995"
         d="m 48.487322,137.30708 c 0,0 2.566641,-14.38328 10.070319,-30.90982 C 65.717244,90.628525 77.478984,72.942518 91.418805,62.555787 105.97621,51.708891 117.46787,48.055113 129.63919,47.883064 c 19.26266,-0.188539 33.19649,12.730767 41.78102,26.048854 8.29203,12.864298 11.50935,26.136552 14.38658,26.326022 11.08537,5.85031 27.69254,-7.606786 27.69254,-7.606786 0,0 -15.22462,6.448071 -24.6008,3.744744 l -9.86431,-22.164709 c 0,0 8.23116,-5.114674 10.7239,-11.739306 3.33898,-8.873605 2.08157,-15.741393 2.08157,-15.741393 0,0 -1.62989,7.629535 -6.9205,14.466011 -3.95861,5.115283 -8.91543,8.591554 -8.91543,8.591554 -3.48096,-5.529206 -8.76862,-10.692281 -13.90491,-15.512059 0,0 4.7068,-3.976282 6.71392,-12.417698 1.70901,-7.18763 -0.0587,-16.580859 -0.0587,-16.580859 0,0 -1.82069,10.575824 -4.54569,16.369021 -2.79818,5.948787 -6.92313,8.767497 -6.92313,8.767497 0,0 -9.64682,-9.295614 -26.61848,-9.030097 -17.2408,0.269727 -41.981912,8.369733 -60.905018,35.592558 -19.125427,27.513882 -21.27448,60.310662 -21.27448,60.310662 z"
         style="fill:#000000;fill-opacity:1;stroke:none" />
    </g>
    <g
       id="g4015"
       transform="matrix(-1,0,0,1,584.72259,-40.406066)">
      <path
         transform="matrix(0.99161779,0.29561813,-0.3068547,0.9553062,52.637543,777.26527)"
         style="fill:#ffffff;fill-opacity:1;fill-rule:nonzero;stroke:none"
         d="m 174.75639,132.76138 c 5.01174,62.63923 -28.12997,103.81997 -64.67189,103.81997 -36.54192,0 -68.737071,-49.34139 -68.737071,-104.01479 0,-54.673396 24.940927,-94.373823 61.482841,-94.373823 36.54192,0 67.55899,39.986073 71.92612,94.568643 z"
         id="path4017"
         inkscape:connector-curvature="0"
         sodipodi:nodetypes="sssss" />
      <path
         style="fill:url(#linearGradient4029);fill-opacity:1;fill-rule:nonzero;stroke:none"
         d="m 141.92643,957.40786 c 0,38.7735 -24.34696,75.76144 -51.26524,75.76144 -26.918282,0 -46.161449,-32.95 -45.709403,-71.72083 0.505076,-43.31917 21.316502,-68.69039 48.234784,-68.69039 26.918279,0 48.739859,25.8763 48.739859,64.64978 z"
         id="path4019"
         inkscape:connector-curvature="0"
         sodipodi:nodetypes="sssss" />
      <path
         transform="translate(0,796.36218)"
         style="fill:#000000;fill-opacity:1;fill-rule:nonzero;stroke:none"
         d="m 130.35789,164.5812 c 0,29.98117 -20.65226,59.33647 -45.505074,59.33647 -24.852814,0 -37.423855,-21.27408 -37.423855,-51.25525 0,-29.98117 22.167491,-60.8517 47.020305,-60.8517 24.852814,0 35.908624,22.78931 35.908624,52.77048 z"
         id="path4021"
         inkscape:connector-curvature="0"
         sodipodi:nodetypes="sssss" />
      <path
         style="fill:#ffffff;fill-opacity:1;fill-rule:nonzero;stroke:none"
         d="m 87.764363,941.2566 c 12.466007,14.37674 30.193937,18.94922 37.874647,9.43296 7.14557,-8.85323 6.71512,-22.10286 -5.03659,-35.40817 -11.75171,-13.3053 -25.040613,-17.73515 -35.469182,-12.41745 -10.894536,5.55531 -8.998493,24.98051 2.631125,38.39266 z"
         id="path4023"
         inkscape:connector-curvature="0"
         sodipodi:nodetypes="sssss" />
      <path
         style="fill:#ffffff;fill-opacity:1;fill-rule:nonzero;stroke:none"
         d="m 59.424918,999.76113 c -1.711088,3.13217 -0.08104,7.73407 4.185989,9.96707 1.758957,0.9204 5.290158,1.104 6.985747,1.057 2.417832,-0.067 3.27484,-1.0967 4.280627,-2.9379 1.711088,-3.1322 -0.153053,-8.34582 -4.420126,-10.57879 -4.26703,-2.23292 -9.321149,-0.63957 -11.032237,2.49262 z"
         id="path4025"
         inkscape:connector-curvature="0"
         sodipodi:nodetypes="ssssss" />
      <path
         style="fill:#000000;fill-opacity:1;stroke:none"
         d="m 48.487322,137.30708 c 0,0 2.566641,-14.38328 10.070319,-30.90982 C 65.717244,90.628525 77.478984,72.942518 91.418805,62.555787 105.97621,51.708891 117.46787,48.055113 129.63919,47.883064 c 19.26266,-0.188539 33.19649,12.730767 41.78102,26.048854 8.29203,12.864298 11.50935,26.136552 14.38658,26.326022 11.08537,5.85031 27.69254,-7.606786 27.69254,-7.606786 0,0 -15.22462,6.448071 -24.6008,3.744744 l -9.86431,-22.164709 c 0,0 8.23116,-5.114674 10.7239,-11.739306 3.33898,-8.873605 2.08157,-15.741393 2.08157,-15.741393 0,0 -1.62989,7.629535 -6.9205,14.466011 -3.95861,5.115283 -8.91543,8.591554 -8.91543,8.591554 -3.48096,-5.529206 -8.76862,-10.692281 -13.90491,-15.512059 0,0 4.7068,-3.976282 6.71392,-12.417698 1.70901,-7.18763 -0.0587,-16.580859 -0.0587,-16.580859 0,0 -1.82069,10.575824 -4.54569,16.369021 -2.79818,5.948787 -6.92313,8.767497 -6.92313,8.767497 0,0 -9.64682,-9.295614 -26.61848,-9.030097 -17.2408,0.269727 -41.981912,8.369733 -60.905018,35.592558 -19.125427,27.513882 -21.27448,60.310662 -21.27448,60.310662 z"
         id="path4027"
         inkscape:connector-curvature="0"
         transform="translate(0,796.36218)"
         sodipodi:nodetypes="csscsccccscsccscscsscc" />
    </g>
    <g
       transform="matrix(-0.57678106,0,0,0.57678106,133.2439,387.32844)"
       id="g4073">
      <path
         sodipodi:nodetypes="sssss"
         inkscape:connector-curvature="0"
         id="path4075"
         d="m 174.75639,132.76138 c 5.01174,62.63923 -28.12997,103.81997 -64.67189,103.81997 -36.54192,0 -68.737071,-49.34139 -68.737071,-104.01479 0,-54.673396 24.940927,-94.373823 61.482841,-94.373823 36.54192,0 67.55899,39.986073 71.92612,94.568643 z"
         style="fill:#ffffff;fill-opacity:1;fill-rule:nonzero;stroke:none"
         transform="matrix(0.99161779,0.29561813,-0.3068547,0.9553062,52.637543,777.26527)" />
      <path
         sodipodi:nodetypes="sssss"
         inkscape:connector-curvature="0"
         id="path4077"
         d="m 184.72334,901.48715 c 5.4452,38.38925 -13.46604,78.42982 -40.11755,82.21012 -26.65151,3.78031 -50.33135,-26.14073 -55.328607,-64.59081 -5.583503,-42.9608 11.458647,-71.00326 38.110157,-74.78356 26.65152,-3.78029 51.89081,18.77503 57.336,57.16425 z"
         style="fill:url(#linearGradient4087);fill-opacity:1;fill-rule:nonzero;stroke:none" />
      <path
         sodipodi:nodetypes="sssss"
         inkscape:connector-curvature="0"
         id="path4079"
         d="m 173.76596,906.61228 c 4.21044,29.68404 -12.11461,61.64875 -36.72112,65.13898 -24.60652,3.49023 -40.040635,-15.80759 -44.25107,-45.49164 -4.210438,-29.68405 13.40203,-63.36176 38.00856,-66.85199 24.60651,-3.49023 38.75319,17.5206 42.96363,47.20465 z"
         style="fill:#000000;fill-opacity:1;fill-rule:nonzero;stroke:none" />
      <path
         sodipodi:nodetypes="sssss"
         inkscape:connector-curvature="0"
         id="path4081"
         d="m 128.82981,893.10226 c 14.36148,12.48359 32.55587,14.52111 38.82403,4.02051 5.83144,-9.76898 3.54453,-22.82686 -9.95926,-34.34994 -13.50379,-11.52308 -27.2831,-14.04279 -36.86153,-7.31324 -10.0064,7.03024 -5.40115,25.99666 7.99676,37.64267 z"
         style="fill:#ffffff;fill-opacity:1;fill-rule:nonzero;stroke:none" />
      <path
         sodipodi:nodetypes="ssssss"
         inkscape:connector-curvature="0"
         id="path4083"
         d="m 108.98737,955.00688 c -1.25426,3.34143 1.00594,7.6688 5.54424,9.28043 1.87078,0.66426 5.39278,0.35013 7.06495,0.0655 2.38447,-0.40588 3.08837,-1.54573 3.82562,-3.50994 1.25426,-3.34145 -1.32359,-8.24161 -5.86196,-9.8532 -4.53832,-1.61155 -9.31859,0.67579 -10.57285,4.01724 z"
         style="fill:#ffffff;fill-opacity:1;fill-rule:nonzero;stroke:none" />
      <path
         sodipodi:nodetypes="csscsccccscsccscscsscc"
         transform="translate(0,796.36218)"
         inkscape:connector-curvature="0"
         id="path4085"
         d="m 48.487322,137.30708 c 0,0 2.566641,-14.38328 10.070319,-30.90982 C 65.717244,90.628525 77.478984,72.942518 91.418805,62.555787 105.97621,51.708891 117.46787,48.055113 129.63919,47.883064 c 19.26266,-0.188539 33.19649,12.730767 41.78102,26.048854 8.29203,12.864298 11.50935,26.136552 14.38658,26.326022 11.08537,5.85031 27.69254,-7.606786 27.69254,-7.606786 0,0 -15.22462,6.448071 -24.6008,3.744744 l -9.86431,-22.164709 c 0,0 8.23116,-5.114674 10.7239,-11.739306 3.33898,-8.873605 2.08157,-15.741393 2.08157,-15.741393 0,0 -1.62989,7.629535 -6.9205,14.466011 -3.95861,5.115283 -8.91543,8.591554 -8.91543,8.591554 -3.48096,-5.529206 -8.76862,-10.692281 -13.90491,-15.512059 0,0 4.7068,-3.976282 6.71392,-12.417698 1.70901,-7.18763 -0.0587,-16.580859 -0.0587,-16.580859 0,0 -1.82069,10.575824 -4.54569,16.369021 -2.79818,5.948787 -6.92313,8.767497 -6.92313,8.767497 0,0 -9.64682,-9.295614 -26.61848,-9.030097 -17.2408,0.269727 -41.981912,8.369733 -60.905018,35.592558 -19.125427,27.513882 -21.27448,60.310662 -21.27448,60.310662 z"
         style="fill:#000000;fill-opacity:1;stroke:none" />
    </g>
    <g
       transform="matrix(0.57678106,0,0,0.57678106,122.92158,387.32844)"
       id="g4089">
      <path
         transform="matrix(0.99161779,0.29561813,-0.3068547,0.9553062,52.637543,777.26527)"
         style="fill:#ffffff;fill-opacity:1;fill-rule:nonzero;stroke:none"
         d="m 174.75639,132.76138 c 5.01174,62.63923 -28.12997,103.81997 -64.67189,103.81997 -36.54192,0 -68.737071,-49.34139 -68.737071,-104.01479 0,-54.673396 24.940927,-94.373823 61.482841,-94.373823 36.54192,0 67.55899,39.986073 71.92612,94.568643 z"
         id="path4091"
         inkscape:connector-curvature="0"
         sodipodi:nodetypes="sssss" />
      <path
         style="fill:url(#linearGradient4103);fill-opacity:1;fill-rule:nonzero;stroke:none"
         d="m 177.4731,983.13654 c -14.6282,35.90826 -51.13051,60.97736 -76.05958,50.82186 -24.929075,-10.1556 -30.319066,-47.93059 -15.273252,-83.66576 16.810902,-39.92742 45.656282,-55.57217 70.585362,-45.41663 24.92907,10.15554 35.37565,42.35233 20.74747,78.26053 z"
         id="path4093"
         inkscape:connector-curvature="0"
         sodipodi:nodetypes="sssss" />
      <path
         style="fill:#000000;fill-opacity:1;fill-rule:nonzero;stroke:none"
         d="m 165.42559,982.0463 c -11.31108,27.7657 -41.51215,47.1601 -64.52839,37.7838 -23.016245,-9.3762 -26.632168,-33.821 -15.321086,-61.58662 11.311087,-27.76562 43.487056,-47.99169 66.503306,-38.61539 23.01624,9.3763 24.65726,34.65258 13.34617,62.41821 z"
         id="path4095"
         inkscape:connector-curvature="0"
         sodipodi:nodetypes="sssss" />
      <path
         style="fill:#ffffff;fill-opacity:1;fill-rule:nonzero;stroke:none"
         d="m 138.37129,955.76648 c -16.96874,8.61123 -33.20031,5.40222 -38.634583,-5.5532 -5.434278,-10.95541 2.145803,-27.08274 18.048823,-34.97121 15.90302,-7.88846 32.07269,-4.99387 37.50697,5.96154 5.43427,10.9554 -1.09095,26.52939 -16.92121,34.56287 z"
         id="path4097"
         inkscape:connector-curvature="0"
         sodipodi:nodetypes="sssss" />
      <path
         style="fill:#ffffff;fill-opacity:1;fill-rule:nonzero;stroke:none"
         d="m 110.1824,991.63986 c 0.40295,3.54628 -2.84285,7.19312 -7.63693,7.65119 -1.97622,0.18878 -5.315736,-0.97341 -6.868294,-1.65664 -2.21388,-0.97423 -2.61908,-2.25117 -2.855941,-4.33567 -0.402947,-3.54628 3.290407,-7.67136 8.084585,-8.12947 4.79413,-0.45808 8.87363,2.92431 9.27658,6.47059 z"
         id="path4099"
         inkscape:connector-curvature="0"
         sodipodi:nodetypes="ssssss" />
      <path
         style="fill:#000000;fill-opacity:1;stroke:none"
         d="m 48.487322,137.30708 c 0,0 2.566641,-14.38328 10.070319,-30.90982 C 65.717244,90.628525 77.478984,72.942518 91.418805,62.555787 105.97621,51.708891 117.46787,48.055113 129.63919,47.883064 c 19.26266,-0.188539 33.19649,12.730767 41.78102,26.048854 8.29203,12.864298 11.50935,26.136552 14.38658,26.326022 11.08537,5.85031 27.69254,-7.606786 27.69254,-7.606786 0,0 -15.22462,6.448071 -24.6008,3.744744 l -9.86431,-22.164709 c 0,0 8.23116,-5.114674 10.7239,-11.739306 3.33898,-8.873605 2.08157,-15.741393 2.08157,-15.741393 0,0 -1.62989,7.629535 -6.9205,14.466011 -3.95861,5.115283 -8.91543,8.591554 -8.91543,8.591554 -3.48096,-5.529206 -8.76862,-10.692281 -13.90491,-15.512059 0,0 4.7068,-3.976282 6.71392,-12.417698 1.70901,-7.18763 -0.0587,-16.580859 -0.0587,-16.580859 0,0 -1.82069,10.575824 -4.54569,16.369021 -2.79818,5.948787 -6.92313,8.767497 -6.92313,8.767497 0,0 -9.64682,-9.295614 -26.61848,-9.030097 -17.2408,0.269727 -41.981912,8.369733 -60.905018,35.592558 -19.125427,27.513882 -21.27448,60.310662 -21.27448,60.310662 z"
         id="path4101"
         inkscape:connector-curvature="0"
         transform="translate(0,796.36218)"
         sodipodi:nodetypes="csscsccccscsccscscsscc" />
    </g>
    <path
       d="M 22.84375,796.375 C 10.193904,796.375 0,808.11897 0,822.71875 L 0,1026 c 0,14.5998 10.193904,26.375 22.84375,26.375 l 210.3125,0 C 245.8061,1052.375 256,1040.5998 256,1026 l 0,-203.28125 C 256,808.11897 245.8061,796.375 233.15625,796.375 l -210.3125,0 z"
       id="path4257"
       style="fill:url(#radialGradient4259);fill-opacity:1;fill-rule:nonzero;stroke:none"
       inkscape:original="M 22.84375 796.375 C 10.193904 796.375 0 808.11897 0 822.71875 L 0 1026 C 0 1040.5998 10.193904 1052.375 22.84375 1052.375 L 233.15625 1052.375 C 245.8061 1052.375 256 1040.5998 256 1026 L 256 822.71875 C 256 808.11897 245.8061 796.375 233.15625 796.375 L 22.84375 796.375 z "
       inkscape:radius="0"
       sodipodi:type="inkscape:offset"
       transform="translate(-270.32103,-0.73656957)" />
    <rect
       y="1085.1301"
       x="-27.592661"
       height="320"
       width="320"
       id="rect3201"
       style="fill:url(#radialGradient3231);fill-opacity:1;fill-rule:nonzero;stroke:none"
       inkscape:export-filename="/home/paul/src/prj/derp/data/icon-bw-256.png"
       inkscape:export-xdpi="72"
       inkscape:export-ydpi="72" />
    <g
       id="g3203"
       transform="matrix(-0.57678106,0,0,0.57678106,-106.33943,938.89094)"
       style="fill:#676767;fill-opacity:1">
      <path
         style="fill:#676767;fill-opacity:1;fill-rule:nonzero;stroke:none"
         d="m 35.90625,298.21875 c 0,0 -1.016975,5.41681 -0.03125,9.5625 1.157669,4.86885 3.875,7.15625 3.875,7.15625 -2.962515,2.77996 -6.023498,5.74836 -8.03125,8.9375 0,0 -2.841749,-1.9871 -5.125,-4.9375 -3.051524,-3.94315 -4,-8.34375 -4,-8.34375 0,0 -0.73836,3.94437 1.1875,9.0625 1.437765,3.82096 6.1875,6.78125 6.1875,6.78125 l -5.6875,12.78125 c -5.408003,1.55923 -14.1875,-2.15625 -14.1875,-2.15625 0,0 9.420239,7.62873 15.8125,4.46875 -2.320468,10.0506 -2.319988,21.7629 0.53125,34.03125 8.219944,35.36891 34.443732,52.41815 55.34375,46.1875 2.365083,-0.70507 4.590291,-1.78463 6.65625,-3.125 -2.346139,1.01837 -4.864938,1.59375 -7.5,1.59375 -15.525954,0 -29.5625,-21.35493 -29.5625,-43.71875 0,-22.36381 12.599047,-37.28125 28.125,-37.28125 11.785076,0 21.54315,8.4472 25.6875,23.4375 -0.15154,-0.831 -0.32005,-1.67043 -0.5,-2.5 0.3971,1.64446 0.59375,2.65625 0.59375,2.65625 0,0 -1.25007,-18.91176 -12.28125,-34.78125 C 82.085511,312.32964 67.819167,307.65557 57.875,307.5 c -9.788932,-0.15315 -15.34375,5.21875 -15.34375,5.21875 0,0 -2.386063,-1.63135 -4,-5.0625 -1.571728,-3.34141 -2.625,-9.4375 -2.625,-9.4375 z m 52.125,52.34375 c 1.020666,4.83884 -0.947278,11.48258 -5.40625,16.625 -7.190157,8.29223 -17.413662,10.9263 -21.84375,5.4375 -0.870411,-1.07842 -1.539731,-2.25021 -2,-3.53125 -0.482964,2.95486 -0.71875,6.14304 -0.71875,9.46875 0,17.29257 11.915368,34.21875 26.25,34.21875 14.334632,0 21.5625,-12.26993 21.5625,-29.5625 0,-13.42896 -7.684924,-27.18762 -17.84375,-32.65625 z m 6.6875,48.34375 c 0.237857,-0.0147 0.487503,-0.017 0.71875,0 1.541645,0.11359 2.914423,0.90213 3.53125,2.03125 0.986923,1.80658 0.05489,4.46205 -2.40625,5.75 -1.014533,0.53087 -3.053266,0.65211 -4.03125,0.625 -1.39456,-0.0386 -1.888631,-0.65678 -2.46875,-1.71875 -0.986923,-1.80659 0.07008,-4.80582 2.53125,-6.09375 0.692196,-0.36222 1.41143,-0.54954 2.125,-0.59375 z"
         transform="matrix(-1.7337601,0,0,1.7337601,231.01296,304.62236)"
         id="path3205"
         inkscape:connector-curvature="0" />
    </g>
    <g
       id="g3217"
       transform="matrix(0.57678106,0,0,0.57678106,-116.66175,938.89094)"
       style="fill:#676767;fill-opacity:1">
      <path
         style="fill:#676767;fill-opacity:1;fill-rule:nonzero;stroke:none"
         d="m 220.25,298.21875 c 0,0 -1.05327,6.09609 -2.625,9.4375 -1.61394,3.43115 -3.96875,5.0625 -3.96875,5.0625 0,0 -5.58607,-5.3719 -15.375,-5.21875 -9.94417,0.15557 -24.21051,4.82964 -35.125,20.53125 -11.03118,15.86949 -12.28125,34.78125 -12.28125,34.78125 0,0 0.18985,-0.90016 0.53125,-2.34375 -0.15435,0.72603 -0.3049,1.46038 -0.4375,2.1875 4.14435,-14.9903 13.90242,-23.4375 25.6875,-23.4375 15.52595,0 28.125,14.91744 28.125,37.28125 0,22.36382 -14.03655,43.71875 -29.5625,43.71875 -2.64929,0 -5.1742,-0.56477 -7.53125,-1.59375 2.07223,1.34728 4.31396,2.41741 6.6875,3.125 20.90002,6.23065 47.15506,-10.81859 55.375,-46.1875 2.85061,-12.26565 2.88142,-23.98213 0.5625,-34.03125 6.39125,3.09597 15.75,-4.46875 15.75,-4.46875 0,0 -8.7795,3.71548 -14.1875,2.15625 l -5.6875,-12.78125 c 0,0 4.74973,-2.96029 6.1875,-6.78125 1.92586,-5.11813 1.1875,-9.0625 1.1875,-9.0625 0,0 -0.91723,4.4006 -3.96875,8.34375 -2.28325,2.9504 -5.15625,4.9375 -5.15625,4.9375 -2.00775,-3.18914 -5.06874,-6.15754 -8.03125,-8.9375 0,0 2.71733,-2.2874 3.875,-7.15625 0.98572,-4.14569 -0.0312,-9.5625 -0.0312,-9.5625 z m -40.8125,50 c 0.011,0.01 0.0203,0.0216 0.0312,0.0312 5.2867,4.6694 5.17649,14.42037 -1.53125,22.15625 -7.19015,8.29223 -16.55705,10.1069 -21.84375,5.4375 -1.74752,-1.54348 -2.85307,-3.71705 -3.3125,-6.1875 -1.5968,4.32633 -2.5,8.9643 -2.5,13.5625 0,17.29257 7.25912,29.5625 21.59375,29.5625 14.33463,0 26.25,-16.92618 26.25,-34.21875 0,-16.44934 -5.78653,-29.1447 -18.6875,-30.34375 z m -12.5,45.4375 c 1.63509,0.0462 3.10233,0.84568 3.75,2.03125 0.98692,1.80659 0.0549,4.46207 -2.40625,5.75 -1.01453,0.53087 -3.05327,0.65211 -4.03125,0.625 -1.39456,-0.0386 -1.88863,-0.62557 -2.46875,-1.6875 -0.98692,-1.80659 0.0701,-4.83707 2.53125,-6.125 0.61529,-0.32198 1.27144,-0.49577 1.90625,-0.5625 0.23805,-0.025 0.48517,-0.0378 0.71875,-0.0312 z"
         transform="matrix(1.7337601,0,0,1.7337601,-213.11653,304.62236)"
         id="path3219"
         inkscape:connector-curvature="0" />
    </g>
    <g
       id="g4060"
       transform="translate(244.95419,7.42299)"
       inkscape:export-filename="/home/paul/src/prj/derp/data/icon-white-256.png"
       inkscape:export-xdpi="97.639999"
       inkscape:export-ydpi="97.639999">
      <g
         transform="matrix(-0.57678106,0,0,0.57678106,-107.3811,701.39094)"
         id="g4019">
        <path
           inkscape:connector-curvature="0"
           id="path4022"
           transform="matrix(-1.7337601,0,0,1.7337601,-186.17307,375.05637)"
           d="m -204.71875,257.59375 c 0,0 -1.01697,5.41681 -0.0312,9.5625 1.15767,4.86885 3.875,7.15625 3.875,7.15625 -2.96251,2.77996 -6.0235,5.74836 -8.03125,8.9375 0,0 -2.84175,-1.9871 -5.125,-4.9375 -3.05152,-3.94315 -4,-8.34375 -4,-8.34375 0,0 -0.73836,3.94437 1.1875,9.0625 1.43777,3.82096 6.1875,6.78125 6.1875,6.78125 l -5.6875,12.78125 c -5.408,1.55923 -14.1875,-2.15625 -14.1875,-2.15625 0,0 9.42024,7.62873 15.8125,4.46875 -2.32047,10.0506 -2.31999,21.7629 0.53125,34.03125 8.21994,35.36891 34.44373,52.41815 55.34375,46.1875 19.41693,-5.78852 29.13166,-34.40568 22.65625,-62.59375 0.57686,2.25379 0.84375,3.65625 0.84375,3.65625 0,0 -1.25007,-18.91176 -12.28125,-34.78125 -10.91449,-15.70161 -25.18083,-20.37568 -35.125,-20.53125 -9.78893,-0.15315 -15.34375,5.21875 -15.34375,5.21875 0,0 -2.38606,-1.63135 -4,-5.0625 -1.57173,-3.34141 -2.625,-9.4375 -2.625,-9.4375 z m 22.5625,13.03125 c 0.43876,0.006 0.87627,0.009 1.3125,0.0312 15.37209,2.18041 25.18921,18.37727 21.96875,43.15625 -2.88232,22.17728 -16.53416,39.43041 -31.90625,37.25 -15.37209,-2.18041 -26.29694,-25.29531 -23.15625,-47.4375 0.21141,-1.49045 0.50083,-2.93793 0.8125,-4.34375 1.438,-2.6116 3.35275,-8.16057 6.875,-13.625 4.95139,-7.68162 12.98341,-15.14 24.09375,-15.03125 z m 4.5,11.9375 c 0.32207,4.9314 -2.55731,11.25938 -7.6875,15.71875 -8.28343,7.2003 -18.79089,8.36905 -22.40625,2.3125 -0.70851,-1.18692 -1.1925,-2.45199 -1.46875,-3.78125 -0.89409,2.85943 -1.56387,5.95491 -2.03125,9.25 -2.4285,17.12119 6.96368,35.5494 21.15625,37.5625 14.19257,2.0131 23.10275,-9.09755 25.53125,-26.21875 1.8853,-13.29156 -3.80893,-27.99978 -13.09375,-34.84375 z m -0.375,48.78125 c 1.91367,0.0693 3.58242,1.17954 4.125,2.625 0.72343,1.92727 -0.56989,4.41419 -3.1875,5.34375 -1.07903,0.38313 -3.12927,0.22667 -4.09375,0.0625 -1.37532,-0.2341 -1.76227,-0.89833 -2.1875,-2.03125 -0.72343,-1.92729 0.75735,-4.75797 3.375,-5.6875 0.6544,-0.23238 1.33086,-0.33559 1.96875,-0.3125 z"
           style="fill:#ffffff;fill-opacity:1;fill-rule:nonzero;stroke:none" />
      </g>
      <g
         transform="matrix(0.57678106,0,0,0.57678106,-117.70342,701.39094)"
         id="g4034">
        <path
           inkscape:connector-curvature="0"
           id="path4036"
           transform="matrix(1.7337601,0,0,1.7337601,204.0695,375.05637)"
           d="m -20.375,257.59375 c 0,0 -1.053272,6.09609 -2.625,9.4375 -1.613937,3.43115 -3.96875,5.0625 -3.96875,5.0625 0,0 -5.586068,-5.3719 -15.375,-5.21875 -9.944167,0.15557 -24.210511,4.82964 -35.125,20.53125 C -88.499934,303.27574 -89.75,322.1875 -89.75,322.1875 c 0,0 0.236404,-1.10416 0.6875,-2.9375 -6.151075,27.95649 3.558854,56.13516 22.8125,61.875 5.987974,1.78512 12.403044,1.63776 18.71875,-0.28125 -4.106509,0.8412 -8.110255,0.64478 -11.6875,-0.8125 -14.378618,-5.85756 -17.490641,-27.63863 -8.8125,-48.25 9.69621,-23.02938 26.340129,-32.04502 40.71875,-26.1875 11.751763,4.7874 17.8997559,18.06276 15.15625,34.0625 0.450225,-1.5436 0.904501,-3.09767 1.28125,-4.71875 2.8506107,-12.26565 2.8814255,-23.98213 0.5625,-34.03125 6.3912465,3.09597 15.75,-4.46875 15.75,-4.46875 0,0 -8.779497,3.71548 -14.1875,2.15625 l -5.6875,-12.78125 c 0,0 4.7497348,-2.96029 6.1875,-6.78125 1.9258604,-5.11813 1.1875,-9.0625 1.1875,-9.0625 0,0 -0.9172264,4.4006 -3.96875,8.34375 -2.283251,2.9504 -5.15625,4.9375 -5.15625,4.9375 -2.007752,-3.18914 -5.068735,-6.15754 -8.03125,-8.9375 0,0 2.717331,-2.2874 3.875,-7.15625 0.985725,-4.14569 -0.03125,-9.5625 -0.03125,-9.5625 z m -3.59375,61.0625 c 3.134384,6.31887 -0.650656,15.30394 -9.78125,19.9375 -9.787248,4.96679 -19.14686,3.13138 -22.28125,-3.1875 -1.04034,-2.09731 -1.233366,-4.52827 -0.71875,-7 -3.116775,3.4074 -5.700318,7.36069 -7.4375,11.625 -6.524018,16.01468 -4.431581,30.12324 8.84375,35.53125 13.275331,5.40807 30.694733,-5.7978 37.21875,-21.8125 6.198885,-15.21658 5.613913,-29.10497 -5.84375,-35.09375 z m -31.375,36.90625 c 2.765163,-0.26421 5.11133,1.67332 5.34375,3.71875 0.232414,2.04543 -1.64111,4.14203 -4.40625,4.40625 -1.13984,0.1089 -3.073263,-0.54344 -3.96875,-0.9375 -1.276924,-0.5619 -1.488378,-1.29769 -1.625,-2.5 -0.23241,-2.04543 1.891064,-4.42327 4.65625,-4.6875 z"
           style="fill:#ffffff;fill-opacity:1;fill-rule:nonzero;stroke:none" />
      </g>
    </g>
  </g>
</svg>
